<?xml version="1.0" encoding="UTF-8"?>
<svg width="1757.8" height="650.73" version="1.1" xmlns="http://www.w3.org/2000/svg">
  <g transform="translate(-378.91 -577.95)" fill="#a00">
    <path d="m1054.9 802.78 6.754 62.154h-7.675q-6.14-21.885-18.727-34.141-16.271-16.049-37.454-16.049-14.429 0-23.332 7.5869-8.596 7.295-8.596 19.259 0 11.964 10.438 22.469 10.438 10.505 34.691 23.052 30.393 15.757 43.901 30.931 13.508 14.882 13.508 32.974 0 22.469-18.113 37.934-17.806 15.174-44.515 15.174-18.42 0-36.226-6.7115-9.21-3.2099-14.429-3.2099-3.377 0-5.833 2.9181-2.456 2.6262-2.763 6.7115h-6.754l-9.21-61.862h7.061q11.666 26.846 26.402 39.393 15.043 12.256 35.612 12.256 16.885 0 27.323-9.0458 10.438-9.0459 10.438-23.636 0-11.38-4.298-17.216-11.359-16.341-45.743-34.141-25.788-12.839-36.84-25.97-11.052-13.423-11.052-30.931 0-22.761 16.271-36.475 15.964-13.423 36.533-13.423 15.043 0 32.849 6.4196 7.982 3.5016 13.508 3.5016 7.982 0 9.8241-9.9213z"/>
    <path d="m1101.6 1e3v-5.5442q19.341-0.5836 24.253-4.9606 5.2191-4.6688 5.5261-21.302v-129.56q-0.307-16.341-5.2191-20.718-4.912-4.377-24.56-5.5442v-5.5442h91.179v5.5442q-19.034 0.5836-24.253 5.2524-5.2191 4.6688-5.8331 21.01v129.56q0.614 16.341 5.8331 21.302 5.526 4.6688 24.253 4.9606v5.5442z"/>
    <path d="m1423.8 896.74v5.2524q-13.201 0.87541-17.192 4.9606-3.991 4.0852-4.298 17.508v59.236q-9.21 7.5869-33.156 14.007-23.946 6.4197-43.901 6.4197-52.497 0-83.811-31.223-25.481-25.387-25.481-67.698 0-44.646 29.472-73.534 29.779-28.888 75.829-28.888 20.569 0 41.752 6.7114 9.21 2.918 13.508 2.918 10.745 0 13.815-9.6295h6.754l2.456 61.57h-7.061q-9.824-22.761-21.797-33.849-17.806-16.049-44.208-16.049-32.542 0-53.418 22.177-10.131 10.797-16.271 29.472-5.833 18.384-5.833 38.81 0 40.56 21.49 64.196 21.797 23.344 59.251 23.344 16.885 0 28.858-4.9606 11.973-5.2524 11.973-12.256v-47.272q-0.307-16.633-4.6049-20.718-4.2981-4.0852-22.411-5.2524v-5.2524z"/>
    <path d="m1700.4 806.87v5.5442q-16.885 1.1672-21.49 5.836-4.6051 4.6688-5.2191 20.426v129.56q0.614 15.757 5.2191 20.718 4.912 4.6688 21.49 5.5442v5.5442h-85.96v-5.5442q18.42-1.1672 23.025-6.1278t4.912-23.344v-132.19l-78.592 167.2h-4.2981l-77.057-160.49v117.6q0.614 22.469 5.833 29.472 5.2191 7.0032 23.025 7.8786v5.5442h-72.145v-5.5442q19.034-1.1672 24.253-7.5868 5.219-6.7114 5.526-29.764v-118.47q-0.6141-16.341-5.526-20.718-4.9121-4.6688-23.639-5.5442v-5.5442h60.786l70.917 147.36 67.847-147.36z"/>
    <path d="m1936.7 994.49v5.5442h-78.285v-5.5442q12.28-0.2918 16.885-2.3344t4.605-7.5868q0-7.0033-5.833-19.551l-12.587-28.013h-80.434l-14.122 34.141q-2.456 6.1278-2.456 11.38 0 11.964 20.876 11.964v5.5442h-60.786v-5.5442q11.052-0.2918 17.192-7.8786 6.14-7.8786 20.876-39.977l63.856-143.27h6.14l76.443 165.74q7.9821 16.341 12.587 20.718 4.6051 4.0852 15.043 4.6688zm-150.43-69.449h70.917l-35.612-80.246z"/>
    <path d="m809.08 777.95-170.09 2e-3h-60.082l105.2 125.37-105.2 125.36h230.17l14.455-81.988c-5.4665 21.172-24.563 35.965-46.43 35.965h-129.53l81.592-97.236-70.859-84.447h114.74c21.866 5e-5 40.963 14.793 46.43 35.965z"/>
  </g>
</svg>
